<svg width="133" height="131" viewBox="0 0 133 131" fill="none" xmlns="http://www.w3.org/2000/svg">
<circle cx="60.7727" cy="60.7768" r="60.7768" fill="#F5F8FF"/>
<circle cx="60.7727" cy="60.7769" r="47.2709" fill="#E4ECFE"/>
<path d="M89.0249 101.448H32.651C31.1846 101.448 29.9958 100.26 29.9958 98.7931V22.6552C29.9958 21.1888 31.1846 20 32.651 20H76.6684L91.6801 33.8569V98.7931C91.6801 100.26 90.4913 101.448 89.0249 101.448Z" fill="#F5F8FF" stroke="#B7CEFF" stroke-width="2"/>
<path fill-rule="evenodd" clip-rule="evenodd" d="M36.781 37.0239C36.781 36.0145 37.5992 35.1963 38.6086 35.1963H73.9954C75.0047 35.1963 75.823 36.0145 75.823 37.0239C75.823 38.0332 75.0047 38.8515 73.9954 38.8515H38.6086C37.5992 38.8515 36.781 38.0332 36.781 37.0239ZM36.781 48.2888C36.781 47.2794 37.5992 46.4612 38.6086 46.4612H84.269C85.2783 46.4612 86.0966 47.2794 86.0966 48.2888C86.0966 49.2981 85.2783 50.1164 84.269 50.1164H38.6086C37.5992 50.1164 36.781 49.2981 36.781 48.2888ZM36.781 59.5537C36.781 58.5443 37.5992 57.7261 38.6086 57.7261H51.1652C52.1745 57.7261 52.9928 58.5443 52.9928 59.5537C52.9928 60.563 52.1745 61.3813 51.1652 61.3813H38.6086C37.5992 61.3813 36.781 60.563 36.781 59.5537ZM57.3282 59.5537C57.3282 58.5443 58.1464 57.7261 59.1558 57.7261H84.269C85.2783 57.7261 86.0966 58.5443 86.0966 59.5537C86.0966 60.563 85.2783 61.3813 84.269 61.3813H59.1558C58.1464 61.3813 57.3282 60.563 57.3282 59.5537ZM36.781 70.8186C36.781 69.8092 37.5992 68.991 38.6086 68.991H71.7124C72.7217 68.991 73.54 69.8092 73.54 70.8186C73.54 71.8279 72.7217 72.6461 71.7124 72.6461H38.6086C37.5992 72.6461 36.781 71.8279 36.781 70.8186ZM77.8753 70.8186C77.8753 69.8092 78.6936 68.991 79.7029 68.991H84.269C85.2783 68.991 86.0966 69.8092 86.0966 70.8186C86.0966 71.8279 85.2783 72.6461 84.269 72.6461H79.7029C78.6936 72.6461 77.8753 71.8279 77.8753 70.8186ZM36.781 80.957C36.781 79.9476 37.5992 79.1294 38.6086 79.1294H80.8444C81.8538 79.1294 82.672 79.9476 82.672 80.957C82.672 81.9663 81.8538 82.7846 80.8444 82.7846H38.6086C37.5992 82.7846 36.781 81.9663 36.781 80.957ZM36.781 91.0954C36.781 90.086 37.5992 89.2678 38.6086 89.2678H69.4293C70.4387 89.2678 71.2569 90.086 71.2569 91.0954C71.2569 92.1047 70.4387 92.923 69.4293 92.923H38.6086C37.5992 92.923 36.781 92.1047 36.781 91.0954Z" fill="#B7CEFF"/>
<path d="M36.781 37.0239C36.781 36.0145 37.5992 35.1963 38.6086 35.1963H73.9954C75.0047 35.1963 75.823 36.0145 75.823 37.0239C75.823 38.0332 75.0047 38.8515 73.9954 38.8515H38.6086C37.5992 38.8515 36.781 38.0332 36.781 37.0239Z" fill="#2D56B2"/>
<path d="M77.0594 19L92.6801 33.4191H81.0594C78.8503 33.4191 77.0594 31.6282 77.0594 29.4191V19Z" fill="#B7CEFF"/>
<rect width="14.7292" height="2.53951" rx="1.26976" transform="matrix(-0.707107 0.707107 0.707107 0.707107 20.411 21)" fill="#2D56B2"/>
<rect width="14.7292" height="2.53951" rx="1.26976" transform="matrix(0.707107 0.707107 0.707107 -0.707107 9.99585 22.7957)" fill="#2D56B2"/>
<circle cx="26.3371" cy="56.3412" r="4.3412" stroke="#5388FE" stroke-width="4"/>
<circle cx="116.604" cy="69.6078" r="3.60776" stroke="#2D56B2" stroke-width="4"/>
<circle cx="10.1059" cy="77.1101" r="1.11008" stroke="#4F86FF" stroke-width="3"/>
<path d="M62.9104 123.958C84.7825 123.958 102.513 122.923 102.513 121.646C102.513 120.369 84.7825 119.333 62.9104 119.333C41.0383 119.333 23.3075 120.369 23.3075 121.646C23.3075 122.923 41.0383 123.958 62.9104 123.958Z" fill="#B7CEFF"/>
<path d="M83.7357 87.7785L89.6862 81.8279L114.207 102.757C117.21 105.32 117.391 109.899 114.599 112.691C111.807 115.483 107.228 115.302 104.665 112.299L83.7357 87.7785Z" fill="#1A3166"/>
<path d="M87.9604 92.7284L104.665 112.299C107.228 115.302 111.807 115.483 114.599 112.691C117.391 109.899 117.21 105.32 114.207 102.757L92.36 84.1101C91.4809 87.2796 89.9678 90.1975 87.9604 92.7284Z" fill="#2D56B2"/>
<path d="M76.9411 52.0705L61.5605 87.7787C61.3236 87.5955 61.0889 87.4057 60.8585 87.2138C59.3719 85.9566 58.0773 84.4796 57.0176 82.8315L70.3027 51.9876C72.5037 51.6252 74.7494 51.6533 76.9411 52.0705Z" fill="white"/>
<path d="M87.8748 58.2655L73.4139 91.8382C70.4102 91.8415 67.446 91.1384 64.7506 89.7834L80.5409 53.1219C83.3383 54.2403 85.8473 56 87.8748 58.2655Z" fill="white"/>
<path fill-rule="evenodd" clip-rule="evenodd" d="M64.6227 57.0064C61.8225 58.8289 59.6044 61.4657 58.2582 64.5908C56.9118 67.7165 56.5011 71.1839 57.0811 74.5523C57.6611 77.9204 59.2038 81.0291 61.505 83.4881C63.8056 85.9463 66.7601 87.6444 69.9908 88.3777C73.2211 89.1109 76.5917 88.8489 79.6793 87.6228L79.6795 87.6226C81.7305 86.8084 83.6085 85.5875 85.2047 84.0265C86.8011 82.4654 88.0843 80.5949 88.9781 78.5199C89.872 76.4449 90.3581 74.2079 90.407 71.9372C90.4559 69.6665 90.0667 67.4094 89.2628 65.2954L89.2627 65.2952C88.0524 62.1112 85.9494 59.3755 83.2293 57.4274C80.5099 55.4799 77.2936 54.4048 73.9872 54.3301C70.6807 54.2555 67.4221 55.1844 64.6227 57.0064ZM53.0837 62.3618C54.8636 58.2299 57.8064 54.7204 61.5493 52.2842C65.293 49.8476 69.6659 48.5969 74.1143 48.6973C78.5627 48.7978 82.8764 50.2445 86.5099 52.8468C90.1426 55.4485 92.93 59.0861 94.5293 63.2931C95.5916 66.0868 96.1044 69.0651 96.0399 72.0586C95.9754 75.0522 95.3347 78.005 94.1527 80.7489C92.9707 83.493 91.2697 85.9761 89.144 88.0548C87.0182 90.1336 84.5092 91.7672 81.7589 92.8591C77.6161 94.5044 73.0858 94.8577 68.7437 93.8722C64.4022 92.8868 60.4529 90.6093 57.3913 87.338C54.3304 84.0673 52.2933 79.9496 51.5286 75.5083C50.7639 71.0674 51.3041 66.4932 53.0837 62.3618Z" fill="#2D56B2"/>
<path d="M112.007 102.952L94.3411 88.486C93.7935 88.0376 93.1555 88.6682 93.5988 89.2196L107.865 106.963C108.415 107.648 109.21 108.092 110.038 108.179L110.528 108.23C112.219 108.407 113.492 107.07 113.243 105.378L113.185 104.985C113.07 104.209 112.644 103.474 112.007 102.952Z" fill="#9FBDFF"/>
<rect width="22.9185" height="3.95147" rx="1.97574" transform="matrix(-0.707107 0.707107 0.707107 0.707107 80.2018 62.0001)" fill="#2D56B2"/>
<rect width="22.9185" height="3.95147" rx="1.97574" transform="matrix(0.707107 0.707107 0.707107 -0.707107 63.9958 64.7941)" fill="#2D56B2"/>
<rect width="12.8004" height="2.20696" rx="1.10348" transform="matrix(-0.707107 0.707107 0.707107 0.707107 111.047 37.0001)" fill="#5388FE"/>
<rect width="12.8004" height="2.20696" rx="1.10348" transform="matrix(0.707107 0.707107 0.707107 -0.707107 101.996 38.5605)" fill="#5388FE"/>
<rect width="10.8561" height="1.87174" rx="0.935869" transform="matrix(-0.707107 0.707107 0.707107 0.707107 44.6724 107)" fill="#2D56B2"/>
<rect width="10.8561" height="1.87174" rx="0.935869" transform="matrix(0.707107 0.707107 0.707107 -0.707107 36.9958 108.323)" fill="#2D56B2"/>
</svg>
