<?xml version="1.0" encoding="UTF-8"?>
<svg id="apple-favicon.ico" xmlns="http://www.w3.org/2000/svg" viewBox="0 0 144 144">
  <defs>
    <style>
      .cls-1 {
        fill: #F0D07D; 
      }
      .cls-2 {
        fill: hsl(214deg 51% 8%);
      }
    </style>
  </defs>
  <!-- Background Circle -->
  <circle class="cls-2" cx="72" cy="72" r="61.92"/>
  <!-- Foreground Elements -->
  <g>
    <path class="cls-1" d="M113.32,104.56c-2.89,2.8-9.91,8.76-13.23,10.75-2.58,1.55-10.21,5.53-18.09,8.34-6.64,2.36-14.25,5.3-20.2,6.29s-13.23,1.73-19.75-.58c-8.33-2.95-13.09-10.73-12.31-19.51.71-8,4.12-14.91,8.23-21.54,6.25-10.1,14.03-18.73,24.55-24.59,3.66-2.04,7.54-3.4,11.81-3.53,10.22-.31,15.64,7.6,11.55,17.01-2.26,5.21-6.26,9-10.92,11.95-7.55,4.78-15.47,8.9-24.32,10.77-2.46.52-7.01.91-7.49.99s-1.21.19-1.48.16,1.4-1.22,1.07-.94,2.11-1.99,3.36-2.56c6.21-2.82,12.58-5.32,18.72-8.29,5.27-2.55,9.8-6.15,12.64-11.46.71-1.34,1.29-2.8,1.65-4.27.84-3.45-.59-5.91-4.07-6.39-2.21-.3-4.64-.12-6.8.47-8.12,2.21-14.85,6.59-19.85,13.47-5.09,7.01-9.83,14.24-11.52,22.89-.7,3.57-1.06,7.41-.53,10.97,1.18,7.88,6.72,12.2,14.8,12.48,8.94.32,17.41-1.7,25.55-5.16,7.41-3.16,14.84-6.31,22.04-9.91,4.86-2.43,9.35-5.62,14-8.47.48-.31,1.65-1.42,1.65-1.09s-.71,1.19-1.03,1.74Z"/>
    <path class="cls-1" d="M108.74,41.02c-4.65,8.3-10.76,14.9-20.3,17.42,5.29-7.52,12.41-12.9,20.3-17.42Z"/>
    <path class="cls-1" d="M32.22,46.98c9.14,3.13,16.65,7.78,21.5,16.32-4.7-.48-18.62-11.01-21.5-16.32Z"/>
    <path class="cls-1" d="M87.89,32.27c-3.26-12.76-18.64-19.27-30.61-13.02-9.31,4.87-12.52,15.56-7.41,24.71,5.33,9.54,17.83,14.06,28,10.13,6.7-2.59,10.85-8.46,11.08-15.43-.34-2.13-.53-4.31-1.06-6.4ZM85.53,41.77c-.99,4.39-6.28,8.42-11.99,9.11-1.04.13-2.09.16-3.31.26-6.79-.33-12.51-2.99-16.27-9.05-5.36-8.63-.43-19.29,9.71-20.39,3.76-.41,7.89.04,11.5,1.19,8.21,2.6,12.26,10.5,10.36,18.88Z"/>
  </g>
</svg>
